<?xml version="1.0" encoding="UTF-8"?>
<svg width="1920px" height="1080px" viewBox="0 0 1920 1080" version="1.1" xmlns="http://www.w3.org/2000/svg" xmlns:xlink="http://www.w3.org/1999/xlink">
    <title>restapi_kit</title>
    <defs>
        <polygon id="path-1" points="16.5 0 33 11.6666667 29.7 11.6666667 29.7 25 21.45 25 21.45 16.6666667 11.55 16.6666667 11.55 25 3.3 25 3.3 11.6666667 0 11.6666667"></polygon>
        <filter x="-3.0%" y="-4.0%" width="106.1%" height="108.0%" filterUnits="objectBoundingBox" id="filter-2">
            <feGaussianBlur stdDeviation="0.5" in="SourceAlpha" result="shadowBlurInner1"></feGaussianBlur>
            <feOffset dx="1" dy="1" in="shadowBlurInner1" result="shadowOffsetInner1"></feOffset>
            <feComposite in="shadowOffsetInner1" in2="SourceAlpha" operator="arithmetic" k2="-1" k3="1" result="shadowInnerInner1"></feComposite>
            <feColorMatrix values="0 0 0 0 0   0 0 0 0 0   0 0 0 0 0  0 0 0 0.05 0" type="matrix" in="shadowInnerInner1"></feColorMatrix>
        </filter>
        <filter color-interpolation-filters="auto" id="filter-3">
            <feColorMatrix in="SourceGraphic" type="matrix" values="0 0 0 0 0.968627 0 0 0 0 0.576471 0 0 0 0 0.117647 0 0 0 1.000000 0"></feColorMatrix>
        </filter>
        <filter color-interpolation-filters="auto" id="filter-4">
            <feColorMatrix in="SourceGraphic" type="matrix" values="0 0 0 0 0.968627 0 0 0 0 0.576471 0 0 0 0 0.117647 0 0 0 1.000000 0"></feColorMatrix>
        </filter>
        <filter color-interpolation-filters="auto" id="filter-5">
            <feColorMatrix in="SourceGraphic" type="matrix" values="0 0 0 0 0.968627 0 0 0 0 0.576471 0 0 0 0 0.117647 0 0 0 1.000000 0"></feColorMatrix>
        </filter>
        <filter color-interpolation-filters="auto" id="filter-6">
            <feColorMatrix in="SourceGraphic" type="matrix" values="0 0 0 0 0.968627 0 0 0 0 0.576471 0 0 0 0 0.117647 0 0 0 1.000000 0"></feColorMatrix>
        </filter>
        <filter color-interpolation-filters="auto" id="filter-7">
            <feColorMatrix in="SourceGraphic" type="matrix" values="0 0 0 0 0.968627 0 0 0 0 0.576471 0 0 0 0 0.117647 0 0 0 1.000000 0"></feColorMatrix>
        </filter>
        <filter color-interpolation-filters="auto" id="filter-8">
            <feColorMatrix in="SourceGraphic" type="matrix" values="0 0 0 0 0.968627 0 0 0 0 0.576471 0 0 0 0 0.117647 0 0 0 1.000000 0"></feColorMatrix>
        </filter>
    </defs>
    <g id="restapi_kit" stroke="none" stroke-width="1" fill="none" fill-rule="evenodd">
        <rect fill="#FFFFFF" x="0" y="0" width="1920" height="1080"></rect>
        <g id="trees-icon-label" transform="translate(469.000000, 308.500000)">
            <path d="M146.96,52.0642857 L146.96,41.6642857 L151.24,41.6642857 C157,41.6642857 160.96,39.1042857 160.96,33.5442857 C160.96,27.7842857 156.96,25.8242857 151.08,25.8242857 L143.6,25.8242857 L143.6,52.0642857 L146.96,52.0642857 Z M150.84,38.9442857 L146.96,38.9442857 L146.96,28.5442857 L150.68,28.5442857 C155.28,28.5442857 157.6,29.7842857 157.6,33.5442857 C157.6,37.2642857 155.4,38.9442857 150.84,38.9442857 Z M170.44,52.5442857 C172.88,52.5442857 175,51.3042857 176.84,49.7442857 L176.96,49.7442857 L177.28,52.0642857 L180,52.0642857 L180,40.1042857 C180,35.3042857 177.96,32.1442857 173.24,32.1442857 C170.12,32.1442857 167.4,33.4642857 165.6,34.6642857 L166.88,36.9042857 C168.4,35.9042857 170.44,34.9042857 172.68,34.9042857 C175.84,34.9042857 176.64,37.2642857 176.68,39.7042857 C168.36,40.6242857 164.76,42.7042857 164.76,47.0242857 C164.76,50.5442857 167.2,52.5442857 170.44,52.5442857 Z M171.36,49.8242857 C169.48,49.8242857 168,48.9842857 168,46.8242857 C168,44.3042857 170.12,42.8242857 176.68,42.0642857 L176.68,47.3442857 C174.8,48.9842857 173.24,49.8242857 171.36,49.8242857 Z M194.16,52.5442857 C198.92,52.5442857 202.72,48.6242857 202.72,42.4242857 C202.72,36.7442857 199.52,33.3442857 194.92,33.3442857 C192.48,33.3442857 190.08,34.4642857 188.36,36.5842857 C188.96,28.5842857 191.64,28.0642857 197.88,27.1442857 C199.52,26.9042857 200.88,26.5442857 201.92,25.8642857 L201.24,22.8642857 C200.04,23.4242857 199.36,23.6242857 197.2,23.9442857 C189.8,25.0642857 185,27.1442857 185,40.2642857 C185,48.1042857 188.36,52.5442857 194.16,52.5442857 Z M194.16,49.7842857 C190.2,49.7842857 188.2,46.5042857 188.2,40.9042857 L188.2,39.3842857 L188.2,39.3842857 C190.16,36.7442857 192.2,35.9042857 194.08,35.9042857 C197.44,35.9042857 199.28,38.4242857 199.28,42.4242857 C199.28,46.8242857 197.16,49.7842857 194.16,49.7842857 Z M215.48,52.5442857 C220.24,52.5442857 224.52,48.8242857 224.52,42.3842857 C224.52,35.8642857 220.24,32.1442857 215.48,32.1442857 C210.72,32.1442857 206.48,35.8642857 206.48,42.3842857 C206.48,48.8242857 210.72,52.5442857 215.48,52.5442857 Z M215.48,49.7842857 C212.16,49.7842857 209.92,46.8242857 209.92,42.3842857 C209.92,37.9042857 212.16,34.9042857 215.48,34.9042857 C218.84,34.9042857 221.08,37.9042857 221.08,42.3842857 C221.08,46.8242857 218.84,49.7842857 215.48,49.7842857 Z M243.56,52.0642857 L243.56,32.6242857 L240.24,32.6242857 L240.24,41.6642857 C239.12,41.9042857 238.24,42.0242857 237.08,42.0242857 C233.56,42.0242857 232,40.8242857 232,37.9442857 L232,32.6242857 L228.68,32.6242857 L228.68,37.9442857 C228.68,42.7842857 231.52,44.7442857 236.44,44.7442857 C238.16,44.7442857 238.88,44.5842857 240.24,44.3442857 L240.24,52.0642857 L243.56,52.0642857 Z M253.68,52.0642857 L260.6,41.1042857 C261.36,39.9042857 262.36,38.1442857 263.12,36.6642857 L263.28,36.6642857 C263.08,39.4642857 262.96,41.8642857 262.96,43.9442857 L262.96,52.0642857 L266.12,52.0642857 L266.12,32.6242857 L262.6,32.6242857 L255.64,43.6242857 C254.88,44.8242857 253.88,46.6242857 253.12,48.0242857 L252.96,48.0242857 C253.16,45.2642857 253.32,42.8242857 253.32,40.7442857 L253.32,32.6242857 L250.12,32.6242857 L250.12,52.0642857 L253.68,52.0642857 Z M280.8,29.1442857 C285.28,29.1442857 286.92,26.1442857 287.08,23.0242857 L284.36,23.0242857 C284.28,25.3042857 283.44,27.1842857 280.8,27.1842857 C278.16,27.1842857 277.32,25.3042857 277.24,23.0242857 L274.52,23.0242857 C274.68,26.1442857 276.32,29.1442857 280.8,29.1442857 Z M276.24,52.0642857 L283.16,41.1042857 C283.92,39.9042857 284.92,38.1442857 285.68,36.6642857 L285.84,36.6642857 C285.64,39.4642857 285.52,41.8642857 285.52,43.9442857 L285.52,52.0642857 L288.68,52.0642857 L288.68,32.6242857 L285.16,32.6242857 L278.2,43.6242857 C277.44,44.8242857 276.44,46.6242857 275.68,48.0242857 L275.52,48.0242857 C275.72,45.2642857 275.88,42.8242857 275.88,40.7442857 L275.88,32.6242857 L272.68,32.6242857 L272.68,52.0642857 L276.24,52.0642857 Z M306.56,52.0642857 L306.56,43.3042857 L310.76,43.3042857 L315.84,52.0642857 L319.44,52.0642857 L313.2,41.8242857 L314.84,38.0242857 C315.84,35.7842857 316.64,35.4642857 317.64,35.4642857 C317.92,35.4642857 318.04,35.5042857 318.28,35.5842857 L318.88,32.4642857 C318.56,32.3042857 318.16,32.2242857 317.72,32.2242857 C315.6,32.2242857 314.12,32.8642857 312.56,36.3042857 L310.64,40.6242857 L306.56,40.6242857 L306.56,32.6242857 L303.28,32.6242857 L303.28,52.0642857 L306.56,52.0642857 Z M327.56,52.5442857 C330,52.5442857 332.12,51.3042857 333.96,49.7442857 L334.08,49.7442857 L334.4,52.0642857 L337.12,52.0642857 L337.12,40.1042857 C337.12,35.3042857 335.08,32.1442857 330.36,32.1442857 C327.24,32.1442857 324.52,33.4642857 322.72,34.6642857 L324,36.9042857 C325.52,35.9042857 327.56,34.9042857 329.8,34.9042857 C332.96,34.9042857 333.76,37.2642857 333.8,39.7042857 C325.48,40.6242857 321.88,42.7042857 321.88,47.0242857 C321.88,50.5442857 324.32,52.5442857 327.56,52.5442857 Z M328.48,49.8242857 C326.6,49.8242857 325.12,48.9842857 325.12,46.8242857 C325.12,44.3042857 327.24,42.8242857 333.8,42.0642857 L333.8,47.3442857 C331.92,48.9842857 330.36,49.8242857 328.48,49.8242857 Z M350.88,52.0642857 L350.88,35.3042857 L357.36,35.3042857 L357.36,32.6242857 L341.04,32.6242857 L341.04,35.3042857 L347.56,35.3042857 L347.56,52.0642857 L350.88,52.0642857 Z M366.16,52.5442857 C368.6,52.5442857 370.72,51.3042857 372.56,49.7442857 L372.68,49.7442857 L373,52.0642857 L375.72,52.0642857 L375.72,40.1042857 C375.72,35.3042857 373.68,32.1442857 368.96,32.1442857 C365.84,32.1442857 363.12,33.4642857 361.32,34.6642857 L362.6,36.9042857 C364.12,35.9042857 366.16,34.9042857 368.4,34.9042857 C371.56,34.9042857 372.36,37.2642857 372.4,39.7042857 C364.08,40.6242857 360.48,42.7042857 360.48,47.0242857 C360.48,50.5442857 362.92,52.5442857 366.16,52.5442857 Z M367.08,49.8242857 C365.2,49.8242857 363.72,48.9842857 363.72,46.8242857 C363.72,44.3042857 365.84,42.8242857 372.4,42.0642857 L372.4,47.3442857 C370.52,48.9842857 368.96,49.8242857 367.08,49.8242857 Z M380.8,52.4242857 C383.64,52.4242857 385.4,50.3042857 385.96,46.0642857 C386.4,42.5042857 386.8,38.9042857 387.24,35.3042857 L393.24,35.3042857 L393.24,52.0642857 L396.56,52.0642857 L396.56,32.6242857 L384.6,32.6242857 C384.12,36.8242857 383.64,41.0242857 383.12,45.2242857 C382.76,47.9842857 381.88,49.2242857 380.52,49.2242857 C380.16,49.2242857 379.88,49.1442857 379.64,49.0642857 L379,52.1042857 C379.56,52.3442857 380.04,52.4242857 380.8,52.4242857 Z M410.68,52.5442857 C415.44,52.5442857 419.72,48.8242857 419.72,42.3842857 C419.72,35.8642857 415.44,32.1442857 410.68,32.1442857 C405.92,32.1442857 401.68,35.8642857 401.68,42.3842857 C401.68,48.8242857 405.92,52.5442857 410.68,52.5442857 Z M410.68,49.7842857 C407.36,49.7842857 405.12,46.8242857 405.12,42.3842857 C405.12,37.9042857 407.36,34.9042857 410.68,34.9042857 C414.04,34.9042857 416.28,37.9042857 416.28,42.3842857 C416.28,46.8242857 414.04,49.7842857 410.68,49.7842857 Z M428.12,52.0642857 L428.12,35.3042857 L436.92,35.3042857 L436.92,32.6242857 L424.8,32.6242857 L424.8,52.0642857 L428.12,52.0642857 Z" id="Рабочийкаталог" fill="#333333" fill-rule="nonzero"></path>
            <g id="folder">
                <path d="M39.1952339,1.36598157 L43.8047661,6.63401843 C44.5643185,7.50207827 45.6616226,8 46.8150729,8 L92,8 C94.209139,8 96,9.790861 96,12 L96,70 L96,70 L4,70 C1.790861,70 -3.86153214e-15,68.209139 0,66 L0,4 C-2.705415e-16,1.790861 1.790861,2.04689834e-15 4,0 L36.1849271,0 C37.3383774,-1.10006381e-15 38.4356815,0.497921729 39.1952339,1.36598157 Z" id="Path" fill="#FCA65C"></path>
                <path d="M58.1952339,14.3659816 L62.8047661,19.6340184 C63.5643185,20.5020783 64.6616226,21 65.8150729,21 L96.1538462,21 C98.3629852,21 100.153846,22.790861 100.153846,25 L100.153846,70 L100.153846,70 L12,70 C9.790861,70 8,68.209139 8,66 L8,17 C8,14.790861 9.790861,13 12,13 L55.1849271,13 C56.3383774,13 57.4356815,13.4979217 58.1952339,14.3659816 Z" id="Path" fill="#73B0DE" transform="translate(54.076923, 41.500000) scale(-1, 1) translate(-54.076923, -41.500000) "></path>
                <path d="M9,58 L9,70 L4,70 L4.19964034,69.9951047 C6.31603153,69.8910789 8,68.1421954 8,66 L8,66 L8,58 L9,58 Z" id="Combined-Shape" fill="#73B0DE"></path>
                <g id="Path" transform="translate(37.000000, 29.000000)">
                    <use fill="#61A2D3" fill-rule="evenodd" xlink:href="#path-1"></use>
                    <use fill="black" fill-opacity="1" filter="url(#filter-2)" xlink:href="#path-1"></use>
                </g>
            </g>
        </g>
        <g id="trees-icon-label" transform="translate(631.000000, 439.500000)">
            <path d="M146.76,52.5442857 C147.6,52.5442857 148.2,52.4242857 148.68,52.1842857 L148.24,49.7042857 C147.92,49.7842857 147.76,49.7842857 147.56,49.7842857 C147.04,49.7842857 146.6,49.4242857 146.6,48.3842857 L146.6,23.5842857 L143.28,23.5842857 L143.28,48.1442857 C143.28,50.9442857 144.28,52.5442857 146.76,52.5442857 Z M155.16,28.6242857 C156.44,28.6242857 157.36,27.7842857 157.36,26.4642857 C157.36,25.1842857 156.44,24.3042857 155.16,24.3042857 C153.88,24.3042857 152.96,25.1842857 152.96,26.4642857 C152.96,27.7842857 153.88,28.6242857 155.16,28.6242857 Z M156.8,52.0642857 L156.8,32.6242857 L153.48,32.6242857 L153.48,52.0642857 L156.8,52.0642857 Z M171.96,52.5442857 C176.4,52.5442857 180.4,48.6642857 180.4,42.0242857 C180.4,36.0242857 177.68,32.1442857 172.68,32.1442857 C170.52,32.1442857 168.36,33.3042857 166.56,34.8242857 L166.68,31.3442857 L166.68,23.5842857 L163.36,23.5842857 L163.36,52.0642857 L166,52.0642857 L166.32,50.0642857 L166.44,50.0642857 C168.16,51.6242857 170.16,52.5442857 171.96,52.5442857 Z M171.4,49.7442857 C170.12,49.7442857 168.36,49.2242857 166.68,47.7442857 L166.68,37.5842857 C168.52,35.8242857 170.2,34.9442857 171.84,34.9442857 C175.48,34.9442857 176.96,37.7842857 176.96,42.0642857 C176.96,46.8642857 174.6,49.7442857 171.4,49.7442857 Z M190.6,52.5442857 C195.2,52.5442857 197.72,49.9042857 197.72,46.7442857 C197.72,43.2242857 194.8,41.9042857 191.76,40.8242857 C189.32,39.9842857 187.64,39.2642857 187.64,37.5042857 C187.64,36.0642857 188.72,34.7042857 191.2,34.7042857 C192.92,34.7042857 194.32,35.2642857 195.68,36.2642857 L197.2,34.3442857 C195.68,33.0642857 193.6,32.1442857 191.16,32.1442857 C186.92,32.1442857 184.44,34.5442857 184.44,37.6642857 C184.44,40.8642857 187.24,42.2642857 190.16,43.3042857 L190.598839,43.4651509 C192.6384,44.2214413 194.52,45.077619 194.52,46.9442857 C194.52,48.6242857 193.28,49.9442857 190.72,49.9442857 C188.32,49.9442857 186.56,49.2242857 184.88,47.8242857 L183.36,49.7442857 C185.16,51.5042857 187.76,52.5442857 190.6,52.5442857 Z" id="libs" fill="#333333" fill-rule="nonzero"></path>
            <g id="folder">
                <path d="M39.1952339,1.36598157 L43.8047661,6.63401843 C44.5643185,7.50207827 45.6616226,8 46.8150729,8 L92,8 C94.209139,8 96,9.790861 96,12 L96,70 L96,70 L4,70 C1.790861,70 -3.86153214e-15,68.209139 0,66 L0,4 C-2.705415e-16,1.790861 1.790861,2.04689834e-15 4,0 L36.1849271,0 C37.3383774,-1.10006381e-15 38.4356815,0.497921729 39.1952339,1.36598157 Z" id="Path" fill="#FCA65C"></path>
                <path d="M58.1952339,14.3659816 L62.8047661,19.6340184 C63.5643185,20.5020783 64.6616226,21 65.8150729,21 L96.1538462,21 C98.3629852,21 100.153846,22.790861 100.153846,25 L100.153846,70 L100.153846,70 L12,70 C9.790861,70 8,68.209139 8,66 L8,17 C8,14.790861 9.790861,13 12,13 L55.1849271,13 C56.3383774,13 57.4356815,13.4979217 58.1952339,14.3659816 Z" id="Path" fill="#73B0DE" transform="translate(54.076923, 41.500000) scale(-1, 1) translate(-54.076923, -41.500000) "></path>
                <path d="M9,58 L9,70 L4,70 L4.19964034,69.9951047 C6.31603153,69.8910789 8,68.1421954 8,66 L8,66 L8,58 L9,58 Z" id="Combined-Shape" fill="#73B0DE"></path>
            </g>
        </g>
        <g id="trees-icon-label" transform="translate(793.000000, 570.500000)">
            <path d="M146.6,52.0642857 L146.6,39.5842857 C147.92,36.3042857 149.88,35.1442857 151.52,35.1442857 C152.28,35.1442857 152.72,35.2242857 153.28,35.3842857 L154,32.5442857 C153.4,32.2642857 152.8,32.1442857 151.92,32.1442857 C149.76,32.1442857 147.76,33.7042857 146.4,36.1442857 L146.28,36.1442857 L146,32.6242857 L143.28,32.6242857 L143.28,52.0642857 L146.6,52.0642857 Z M165.04,52.5442857 C167.72,52.5442857 169.8,51.7442857 171.48,50.5442857 L170.32,48.4242857 C168.96,49.3442857 167.32,49.8642857 165.44,49.8642857 C161.76,49.8642857 159.32,47.2242857 159.04,43.2242857 L172.12,43.2242857 C172.24,42.5842857 172.28,41.9842857 172.28,41.2642857 C172.28,35.6642857 169.44,32.1442857 164.48,32.1442857 C160.04,32.1442857 155.76,36.0242857 155.76,42.3442857 C155.76,48.7842857 159.84,52.5442857 165.04,52.5442857 Z M169.32,40.6642857 L159.04,40.6642857 C159.44,36.9442857 161.84,34.7842857 164.56,34.7842857 C167.52,34.7842857 169.32,36.8242857 169.32,40.6642857 Z M182.12,52.5442857 C186.72,52.5442857 189.24,49.9042857 189.24,46.7442857 C189.24,43.2242857 186.32,41.9042857 183.28,40.8242857 C180.84,39.9842857 179.16,39.2642857 179.16,37.5042857 C179.16,36.0642857 180.24,34.7042857 182.72,34.7042857 C184.44,34.7042857 185.84,35.2642857 187.2,36.2642857 L188.72,34.3442857 C187.2,33.0642857 185.12,32.1442857 182.68,32.1442857 C178.44,32.1442857 175.96,34.5442857 175.96,37.6642857 C175.96,40.8642857 178.76,42.2642857 181.68,43.3042857 L182.118839,43.4651509 C184.1584,44.2214413 186.04,45.077619 186.04,46.9442857 C186.04,48.6242857 184.8,49.9442857 182.24,49.9442857 C179.84,49.9442857 178.08,49.2242857 176.4,47.8242857 L174.88,49.7442857 C176.68,51.5042857 179.28,52.5442857 182.12,52.5442857 Z M199.92,52.5442857 C201.24,52.5442857 202.56,52.1842857 203.6,51.7042857 L202.92,49.3442857 C202.12,49.7042857 201.4,49.8242857 200.68,49.8242857 C198.48,49.8242857 197.68,48.4642857 197.68,46.1042857 L197.68,35.3042857 L202.96,35.3042857 L202.96,32.6242857 L197.68,32.6242857 L197.68,26.3842857 L194.92,26.3842857 L194.52,32.6242857 L191.48,32.8242857 L191.48,35.3042857 L194.36,35.3042857 L194.36,46.0242857 C194.36,49.9042857 195.76,52.5442857 199.92,52.5442857 Z M211.84,52.5442857 C214.28,52.5442857 216.4,51.3042857 218.24,49.7442857 L218.36,49.7442857 L218.68,52.0642857 L221.4,52.0642857 L221.4,40.1042857 C221.4,35.3042857 219.36,32.1442857 214.64,32.1442857 C211.52,32.1442857 208.8,33.4642857 207,34.6642857 L208.28,36.9042857 C209.8,35.9042857 211.84,34.9042857 214.08,34.9042857 C217.24,34.9042857 218.04,37.2642857 218.08,39.7042857 C209.76,40.6242857 206.16,42.7042857 206.16,47.0242857 C206.16,50.5442857 208.6,52.5442857 211.84,52.5442857 Z M212.76,49.8242857 C210.88,49.8242857 209.4,48.9842857 209.4,46.8242857 C209.4,44.3042857 211.52,42.8242857 218.08,42.0642857 L218.08,47.3442857 C216.2,48.9842857 214.64,49.8242857 212.76,49.8242857 Z M230.84,60.2642857 L230.84,53.7042857 L230.76,50.3042857 C232.52,51.7042857 234.36,52.5442857 236.12,52.5442857 C240.56,52.5442857 244.56,48.6642857 244.56,42.0642857 C244.56,36.0242857 241.84,32.1442857 236.84,32.1442857 C234.6,32.1442857 232.4,33.3842857 230.64,34.8642857 L230.52,34.8642857 L230.24,32.6242857 L227.52,32.6242857 L227.52,60.2642857 L230.84,60.2642857 Z M235.56,49.7442857 C234.28,49.7442857 232.6,49.2242857 230.84,47.7442857 L230.84,37.5842857 C232.72,35.8242857 234.36,34.9442857 236,34.9442857 C239.64,34.9442857 241.12,37.7842857 241.12,42.0642857 C241.12,46.8642857 238.76,49.7442857 235.56,49.7442857 Z M251.4,28.6242857 C252.68,28.6242857 253.6,27.7842857 253.6,26.4642857 C253.6,25.1842857 252.68,24.3042857 251.4,24.3042857 C250.12,24.3042857 249.2,25.1842857 249.2,26.4642857 C249.2,27.7842857 250.12,28.6242857 251.4,28.6242857 Z M253.04,52.0642857 L253.04,32.6242857 L249.72,32.6242857 L249.72,52.0642857 L253.04,52.0642857 Z M275.84,57.1042857 L275.84,54.9042857 L256.8,54.9042857 L256.8,57.1042857 L275.84,57.1042857 Z M282.88,52.0642857 L282.88,46.9442857 L286.48,42.7442857 L292.16,52.0642857 L295.76,52.0642857 L288.44,40.4642857 L294.92,32.6242857 L291.2,32.6242857 L283,42.7842857 L282.88,42.7842857 L282.88,23.5842857 L279.6,23.5842857 L279.6,52.0642857 L282.88,52.0642857 Z M301.08,28.6242857 C302.36,28.6242857 303.28,27.7842857 303.28,26.4642857 C303.28,25.1842857 302.36,24.3042857 301.08,24.3042857 C299.8,24.3042857 298.88,25.1842857 298.88,26.4642857 C298.88,27.7842857 299.8,28.6242857 301.08,28.6242857 Z M302.72,52.0642857 L302.72,32.6242857 L299.4,32.6242857 L299.4,52.0642857 L302.72,52.0642857 Z M315.4,52.5442857 C316.72,52.5442857 318.04,52.1842857 319.08,51.7042857 L318.4,49.3442857 C317.6,49.7042857 316.88,49.8242857 316.16,49.8242857 C313.96,49.8242857 313.16,48.4642857 313.16,46.1042857 L313.16,35.3042857 L318.44,35.3042857 L318.44,32.6242857 L313.16,32.6242857 L313.16,26.3842857 L310.4,26.3842857 L310,32.6242857 L306.96,32.8242857 L306.96,35.3042857 L309.84,35.3042857 L309.84,46.0242857 C309.84,49.9042857 311.24,52.5442857 315.4,52.5442857 Z" id="restapi_kit" fill="#333333" fill-rule="nonzero"></path>
            <g id="folder">
                <path d="M39.1952339,1.36598157 L43.8047661,6.63401843 C44.5643185,7.50207827 45.6616226,8 46.8150729,8 L92,8 C94.209139,8 96,9.790861 96,12 L96,70 L96,70 L4,70 C1.790861,70 -3.86153214e-15,68.209139 0,66 L0,4 C-2.705415e-16,1.790861 1.790861,2.04689834e-15 4,0 L36.1849271,0 C37.3383774,-1.10006381e-15 38.4356815,0.497921729 39.1952339,1.36598157 Z" id="Path" fill="#FCA65C"></path>
                <path d="M58.1952339,14.3659816 L62.8047661,19.6340184 C63.5643185,20.5020783 64.6616226,21 65.8150729,21 L96.1538462,21 C98.3629852,21 100.153846,22.790861 100.153846,25 L100.153846,70 L100.153846,70 L12,70 C9.790861,70 8,68.209139 8,66 L8,17 C8,14.790861 9.790861,13 12,13 L55.1849271,13 C56.3383774,13 57.4356815,13.4979217 58.1952339,14.3659816 Z" id="Path" fill="#73B0DE" transform="translate(54.076923, 41.500000) scale(-1, 1) translate(-54.076923, -41.500000) "></path>
                <path d="M9,58 L9,70 L4,70 L4.19964034,69.9951047 C6.31603153,69.8910789 8,68.1421954 8,66 L8,66 L8,58 L9,58 Z" id="Combined-Shape" fill="#73B0DE"></path>
            </g>
        </g>
        <g id="trees-icon-label" transform="translate(955.000000, 701.000000)">
            <path d="M130.76,52.48 C131.6,52.48 132.2,52.36 132.68,52.12 L132.24,49.64 C131.92,49.72 131.76,49.72 131.56,49.72 C131.04,49.72 130.6,49.36 130.6,48.32 L130.6,23.52 L127.28,23.52 L127.28,48.08 C127.28,50.88 128.28,52.48 130.76,52.48 Z M145.04,52.48 C149.8,52.48 154.08,48.76 154.08,42.32 C154.08,35.8 149.8,32.08 145.04,32.08 C140.28,32.08 136.04,35.8 136.04,42.32 C136.04,48.76 140.28,52.48 145.04,52.48 Z M145.04,49.72 C141.72,49.72 139.48,46.76 139.48,42.32 C139.48,37.84 141.72,34.84 145.04,34.84 C148.4,34.84 150.64,37.84 150.64,42.32 C150.64,46.76 148.4,49.72 145.04,49.72 Z M165.72,60.96 C171.76,60.96 175.56,57.84 175.56,54.2 C175.56,51 173.28,49.56 168.76,49.56 L165,49.56 C162.4,49.56 161.6,48.68 161.6,47.48 C161.6,46.4 162.12,45.76 162.84,45.16 C163.72,45.6 164.76,45.84 165.72,45.84 C169.68,45.84 172.84,43.24 172.84,39.08 C172.84,37.44 172.2,36 171.28,35.12 L175.24,35.12 L175.24,32.56 L168.48,32.56 C167.76,32.28 166.8,32.08 165.72,32.08 C161.76,32.08 158.4,34.76 158.4,39 C158.4,41.32 159.64,43.2 160.92,44.24 L160.92,44.4 C159.92,45.08 158.8,46.36 158.8,48 C158.8,49.52 159.56,50.56 160.52,51.16 L160.52,51.32 C158.76,52.52 157.68,54.08 157.68,55.72 C157.68,59.08 160.96,60.96 165.72,60.96 Z M165.72,43.6 C163.48,43.6 161.6,41.84 161.6,39 C161.6,36.16 163.44,34.48 165.72,34.48 C168,34.48 169.84,36.2 169.84,39 C169.84,41.84 167.96,43.6 165.72,43.6 Z M166.2,58.64 C162.68,58.64 160.56,57.36 160.56,55.28 C160.56,54.16 161.16,53 162.56,52 C163.4,52.24 164.32,52.32 165.08,52.32 L168.4,52.32 C170.96,52.32 172.32,52.92 172.32,54.72 C172.32,56.72 169.88,58.64 166.2,58.64 Z M181.04,28.56 C182.32,28.56 183.24,27.72 183.24,26.4 C183.24,25.12 182.32,24.24 181.04,24.24 C179.76,24.24 178.84,25.12 178.84,26.4 C178.84,27.72 179.76,28.56 181.04,28.56 Z M182.68,52 L182.68,32.56 L179.36,32.56 L179.36,52 L182.68,52 Z M192.56,52 L192.56,37.92 C194.48,35.96 195.88,34.96 197.84,34.96 C200.4,34.96 201.52,36.48 201.52,40.12 L201.52,52 L204.84,52 L204.84,39.68 C204.84,34.72 203,32.08 198.88,32.08 C196.2,32.08 194.2,33.52 192.36,35.36 L192.24,35.36 L191.96,32.56 L189.24,32.56 L189.24,52 L192.56,52 Z M218.68,52.48 C223.44,52.48 227.72,48.76 227.72,42.32 C227.72,35.8 223.44,32.08 218.68,32.08 C213.92,32.08 209.68,35.8 209.68,42.32 C209.68,48.76 213.92,52.48 218.68,52.48 Z M218.68,49.72 C215.36,49.72 213.12,46.76 213.12,42.32 C213.12,37.84 215.36,34.84 218.68,34.84 C222.04,34.84 224.28,37.84 224.28,42.32 C224.28,46.76 222.04,49.72 218.68,49.72 Z M236.12,52 L236.12,37.92 C237.92,35.92 239.52,34.96 240.96,34.96 C243.44,34.96 244.56,36.48 244.56,40.12 L244.56,52 L247.88,52 L247.88,37.92 C249.68,35.92 251.24,34.96 252.76,34.96 C255.2,34.96 256.36,36.48 256.36,40.12 L256.36,52 L259.68,52 L259.68,39.68 C259.68,34.72 257.76,32.08 253.76,32.08 C251.4,32.08 249.36,33.6 247.36,35.76 C246.56,33.48 244.96,32.08 241.96,32.08 C239.64,32.08 237.64,33.52 235.92,35.36 L235.8,35.36 L235.52,32.56 L232.8,32.56 L232.8,52 L236.12,52 Z M282.2,57.04 L282.2,54.84 L263.16,54.84 L263.16,57.04 L282.2,57.04 Z M289.28,52 L289.28,39.52 C290.6,36.24 292.56,35.08 294.2,35.08 C294.96,35.08 295.4,35.16 295.96,35.32 L296.68,32.48 C296.08,32.2 295.48,32.08 294.6,32.08 C292.44,32.08 290.44,33.64 289.08,36.08 L288.96,36.08 L288.68,32.56 L285.96,32.56 L285.96,52 L289.28,52 Z M307.72,52.48 C310.4,52.48 312.48,51.68 314.16,50.48 L313,48.36 C311.64,49.28 310,49.8 308.12,49.8 C304.44,49.8 302,47.16 301.72,43.16 L314.8,43.16 C314.92,42.52 314.96,41.92 314.96,41.2 C314.96,35.6 312.12,32.08 307.16,32.08 C302.72,32.08 298.44,35.96 298.44,42.28 C298.44,48.72 302.52,52.48 307.72,52.48 Z M312,40.6 L301.72,40.6 C302.12,36.88 304.52,34.72 307.24,34.72 C310.2,34.72 312,36.76 312,40.6 Z M324.8,52.48 C329.4,52.48 331.92,49.84 331.92,46.68 C331.92,43.16 329,41.84 325.96,40.76 C323.52,39.92 321.84,39.2 321.84,37.44 C321.84,36 322.92,34.64 325.4,34.64 C327.12,34.64 328.52,35.2 329.88,36.2 L331.4,34.28 C329.88,33 327.8,32.08 325.36,32.08 C321.12,32.08 318.64,34.48 318.64,37.6 C318.64,40.8 321.44,42.2 324.36,43.24 C326.56,44.04 328.72,44.88 328.72,46.88 C328.72,48.56 327.48,49.88 324.92,49.88 C322.52,49.88 320.76,49.16 319.08,47.76 L317.56,49.68 C319.36,51.44 321.96,52.48 324.8,52.48 Z M342.6,52.48 C343.92,52.48 345.24,52.12 346.28,51.64 L345.6,49.28 C344.8,49.64 344.08,49.76 343.36,49.76 C341.16,49.76 340.36,48.4 340.36,46.04 L340.36,35.24 L345.64,35.24 L345.64,32.56 L340.36,32.56 L340.36,26.32 L337.6,26.32 L337.2,32.56 L334.16,32.76 L334.16,35.24 L337.04,35.24 L337.04,45.96 C337.04,49.84 338.44,52.48 342.6,52.48 Z M354.52,52.48 C356.96,52.48 359.08,51.24 360.92,49.68 L361.04,49.68 L361.36,52 L364.08,52 L364.08,40.04 C364.08,35.24 362.04,32.08 357.32,32.08 C354.2,32.08 351.48,33.4 349.68,34.6 L350.96,36.84 C352.48,35.84 354.52,34.84 356.76,34.84 C359.92,34.84 360.72,37.2 360.76,39.64 C352.44,40.56 348.84,42.64 348.84,46.96 C348.84,50.48 351.28,52.48 354.52,52.48 Z M355.44,49.76 C353.56,49.76 352.08,48.92 352.08,46.76 C352.08,44.24 354.2,42.76 360.76,42 L360.76,47.28 C358.88,48.92 357.32,49.76 355.44,49.76 Z M373.52,60.2 L373.52,53.64 L373.44,50.24 C375.2,51.64 377.04,52.48 378.8,52.48 C383.24,52.48 387.24,48.6 387.24,42 C387.24,35.96 384.52,32.08 379.52,32.08 C377.28,32.08 375.08,33.32 373.32,34.8 L373.2,34.8 L372.92,32.56 L370.2,32.56 L370.2,60.2 L373.52,60.2 Z M378.24,49.68 C376.96,49.68 375.28,49.16 373.52,47.68 L373.52,37.52 C375.4,35.76 377.04,34.88 378.68,34.88 C382.32,34.88 383.8,37.72 383.8,42 C383.8,46.8 381.44,49.68 378.24,49.68 Z M394.08,28.56 C395.36,28.56 396.28,27.72 396.28,26.4 C396.28,25.12 395.36,24.24 394.08,24.24 C392.8,24.24 391.88,25.12 391.88,26.4 C391.88,27.72 392.8,28.56 394.08,28.56 Z M395.72,52 L395.72,32.56 L392.4,32.56 L392.4,52 L395.72,52 Z M418.52,57.04 L418.52,54.84 L399.48,54.84 L399.48,57.04 L418.52,57.04 Z M425.56,52 L425.56,46.88 L429.16,42.68 L434.84,52 L438.44,52 L431.12,40.4 L437.6,32.56 L433.88,32.56 L425.68,42.72 L425.56,42.72 L425.56,23.52 L422.28,23.52 L422.28,52 L425.56,52 Z M443.76,28.56 C445.04,28.56 445.96,27.72 445.96,26.4 C445.96,25.12 445.04,24.24 443.76,24.24 C442.48,24.24 441.56,25.12 441.56,26.4 C441.56,27.72 442.48,28.56 443.76,28.56 Z M445.4,52 L445.4,32.56 L442.08,32.56 L442.08,52 L445.4,52 Z M458.08,52.48 C459.4,52.48 460.72,52.12 461.76,51.64 L461.08,49.28 C460.28,49.64 459.56,49.76 458.84,49.76 C456.64,49.76 455.84,48.4 455.84,46.04 L455.84,35.24 L461.12,35.24 L461.12,32.56 L455.84,32.56 L455.84,26.32 L453.08,26.32 L452.68,32.56 L449.64,32.76 L449.64,35.24 L452.52,35.24 L452.52,45.96 C452.52,49.84 453.92,52.48 458.08,52.48 Z M467.24,52.48 C468.56,52.48 469.64,51.44 469.64,49.96 C469.64,48.44 468.56,47.4 467.24,47.4 C465.92,47.4 464.84,48.44 464.84,49.96 C464.84,51.44 465.92,52.48 467.24,52.48 Z M479,52.48 C479.84,52.48 480.44,52.36 480.92,52.12 L480.48,49.64 C480.16,49.72 480,49.72 479.8,49.72 C479.28,49.72 478.84,49.36 478.84,48.32 L478.84,23.52 L475.52,23.52 L475.52,48.08 C475.52,50.88 476.52,52.48 479,52.48 Z M492.28,60.96 C498.32,60.96 502.12,57.84 502.12,54.2 C502.12,51 499.84,49.56 495.32,49.56 L491.56,49.56 C488.96,49.56 488.16,48.68 488.16,47.48 C488.16,46.4 488.68,45.76 489.4,45.16 C490.28,45.6 491.32,45.84 492.28,45.84 C496.24,45.84 499.4,43.24 499.4,39.08 C499.4,37.44 498.76,36 497.84,35.12 L501.8,35.12 L501.8,32.56 L495.04,32.56 C494.32,32.28 493.36,32.08 492.28,32.08 C488.32,32.08 484.96,34.76 484.96,39 C484.96,41.32 486.2,43.2 487.48,44.24 L487.48,44.4 C486.48,45.08 485.36,46.36 485.36,48 C485.36,49.52 486.12,50.56 487.08,51.16 L487.08,51.32 C485.32,52.52 484.24,54.08 484.24,55.72 C484.24,59.08 487.52,60.96 492.28,60.96 Z M492.28,43.6 C490.04,43.6 488.16,41.84 488.16,39 C488.16,36.16 490,34.48 492.28,34.48 C494.56,34.48 496.4,36.2 496.4,39 C496.4,41.84 494.52,43.6 492.28,43.6 Z M492.76,58.64 C489.24,58.64 487.12,57.36 487.12,55.28 C487.12,54.16 487.72,53 489.12,52 C489.96,52.24 490.88,52.32 491.64,52.32 L494.96,52.32 C497.52,52.32 498.88,52.92 498.88,54.72 C498.88,56.72 496.44,58.64 492.76,58.64 Z M509.24,60.2 L509.24,53.64 L509.16,50.24 C510.92,51.64 512.76,52.48 514.52,52.48 C518.96,52.48 522.96,48.6 522.96,42 C522.96,35.96 520.24,32.08 515.24,32.08 C513,32.08 510.8,33.32 509.04,34.8 L508.92,34.8 L508.64,32.56 L505.92,32.56 L505.92,60.2 L509.24,60.2 Z M513.96,49.68 C512.68,49.68 511,49.16 509.24,47.68 L509.24,37.52 C511.12,35.76 512.76,34.88 514.4,34.88 C518.04,34.88 519.52,37.72 519.52,42 C519.52,46.8 517.16,49.68 513.96,49.68 Z" id="loginom_restapi_kit.lgp" fill="#333333" fill-rule="nonzero"></path>
            <g id="Group">
                <path d="M64,0 C66.209139,-4.05812251e-16 68,1.790861 68,4 L68,66 C68,68.209139 66.209139,70 64,70 L60,70 C62.209139,70 64,68.209139 64,66 L64,66 L64,4 C64,1.790861 62.209139,-4.05812251e-16 60,0 L60,0 L64,0 Z" id="Combined-Shape" fill="#FCA65C"></path>
                <path d="M72,0 C74.209139,-4.05812251e-16 76,1.790861 76,4 L76,66 C76,68.209139 74.209139,70 72,70 L68,70 C70.209139,70 72,68.209139 72,66 L72,66 L72,4 C72,1.790861 70.209139,-4.05812251e-16 68,0 L68,0 L72,0 Z" id="Combined-Shape" fill="#FCA65C"></path>
                <path d="M80,0 C82.209139,-4.05812251e-16 84,1.790861 84,4 L84,66 C84,68.209139 82.209139,70 80,70 L76,70 C78.209139,70 80,68.209139 80,66 L80,66 L80,4 C80,1.790861 78.209139,-4.05812251e-16 76,0 L76,0 L80,0 Z" id="Combined-Shape" fill="#FCA65C"></path>
                <rect id="Rectangle" fill="#73B0DE" x="0" y="0" width="60" height="70" rx="4"></rect>
                <g transform="translate(12.000000, 22.000000)" fill="#F9F9F9" id="Rectangle">
                    <rect x="0" y="0" width="36" height="2" rx="1"></rect>
                    <rect x="0" y="6" width="36" height="2" rx="1"></rect>
                    <rect x="0" y="12" width="36" height="2" rx="1"></rect>
                    <rect x="0" y="18" width="36" height="2" rx="1"></rect>
                    <rect x="0" y="24" width="25" height="2" rx="1"></rect>
                </g>
            </g>
        </g>
        <g id="Arrow/Gray-Circle/L-Shape-Copy" transform="translate(559.000000, 438.500000) rotate(-180.000000) translate(-559.000000, -438.500000) translate(509.000000, 389.000000)">
            <path d="M16,10 L90,10 L90,83" id="Path-4" stroke="#9A9FAF" stroke-width="4" stroke-dasharray="6"></path>
            <g id="Start-point" transform="translate(80.000000, 79.000000)" filter="url(#filter-3)">
                <g transform="translate(10.000000, 10.000000) rotate(90.000000) translate(-10.000000, -10.000000) ">
                    <path d="M10,0 C15.5228475,0 20,4.4771525 20,10 C20,15.5228475 15.5228475,20 10,20 C4.4771525,20 0,15.5228475 0,10 C0,4.4771525 4.4771525,0 10,0 Z M10,6 C7.790861,6 6,7.790861 6,10 C6,12.209139 7.790861,14 10,14 C12.209139,14 14,12.209139 14,10 C14,7.790861 12.209139,6 10,6 Z" id="Shape" fill="#F7931E"></path>
                </g>
            </g>
            <g id="Start-point" filter="url(#filter-4)">
                <g transform="translate(10.000000, 10.000000) rotate(90.000000) translate(-10.000000, -10.000000) ">
                    <path d="M10,0 C15.5228475,0 20,4.4771525 20,10 C20,15.5228475 15.5228475,20 10,20 C4.4771525,20 0,15.5228475 0,10 C0,4.4771525 4.4771525,0 10,0 Z M10,6 C7.790861,6 6,7.790861 6,10 C6,12.209139 7.790861,14 10,14 C12.209139,14 14,12.209139 14,10 C14,7.790861 12.209139,6 10,6 Z" id="Shape" fill="#F7931E"></path>
                </g>
            </g>
        </g>
        <g id="Arrow/Gray-Circle/L-Shape-Copy" transform="translate(721.000000, 569.500000) rotate(-180.000000) translate(-721.000000, -569.500000) translate(671.000000, 520.000000)">
            <path d="M16,10 L90,10 L90,83" id="Path-4" stroke="#9A9FAF" stroke-width="4" stroke-dasharray="6"></path>
            <g id="Start-point" transform="translate(80.000000, 79.000000)" filter="url(#filter-5)">
                <g transform="translate(10.000000, 10.000000) rotate(90.000000) translate(-10.000000, -10.000000) ">
                    <path d="M10,0 C15.5228475,0 20,4.4771525 20,10 C20,15.5228475 15.5228475,20 10,20 C4.4771525,20 0,15.5228475 0,10 C0,4.4771525 4.4771525,0 10,0 Z M10,6 C7.790861,6 6,7.790861 6,10 C6,12.209139 7.790861,14 10,14 C12.209139,14 14,12.209139 14,10 C14,7.790861 12.209139,6 10,6 Z" id="Shape" fill="#F7931E"></path>
                </g>
            </g>
            <g id="Start-point" filter="url(#filter-6)">
                <g transform="translate(10.000000, 10.000000) rotate(90.000000) translate(-10.000000, -10.000000) ">
                    <path d="M10,0 C15.5228475,0 20,4.4771525 20,10 C20,15.5228475 15.5228475,20 10,20 C4.4771525,20 0,15.5228475 0,10 C0,4.4771525 4.4771525,0 10,0 Z M10,6 C7.790861,6 6,7.790861 6,10 C6,12.209139 7.790861,14 10,14 C12.209139,14 14,12.209139 14,10 C14,7.790861 12.209139,6 10,6 Z" id="Shape" fill="#F7931E"></path>
                </g>
            </g>
        </g>
        <g id="Arrow/Gray-Circle/L-Shape-Copy" transform="translate(883.000000, 698.000000) rotate(-180.000000) translate(-883.000000, -698.000000) translate(833.000000, 651.000000)">
            <path d="M16,10 L90,10 L90,78" id="Path-4" stroke="#9A9FAF" stroke-width="4" stroke-dasharray="6"></path>
            <g id="Start-point" transform="translate(80.000000, 74.000000)" filter="url(#filter-7)">
                <g transform="translate(10.000000, 10.000000) rotate(90.000000) translate(-10.000000, -10.000000) ">
                    <path d="M10,0 C15.5228475,0 20,4.4771525 20,10 C20,15.5228475 15.5228475,20 10,20 C4.4771525,20 0,15.5228475 0,10 C0,4.4771525 4.4771525,0 10,0 Z M10,6 C7.790861,6 6,7.790861 6,10 C6,12.209139 7.790861,14 10,14 C12.209139,14 14,12.209139 14,10 C14,7.790861 12.209139,6 10,6 Z" id="Shape" fill="#F7931E"></path>
                </g>
            </g>
            <g id="Start-point" filter="url(#filter-8)">
                <g transform="translate(10.000000, 10.000000) rotate(90.000000) translate(-10.000000, -10.000000) ">
                    <path d="M10,0 C15.5228475,0 20,4.4771525 20,10 C20,15.5228475 15.5228475,20 10,20 C4.4771525,20 0,15.5228475 0,10 C0,4.4771525 4.4771525,0 10,0 Z M10,6 C7.790861,6 6,7.790861 6,10 C6,12.209139 7.790861,14 10,14 C12.209139,14 14,12.209139 14,10 C14,7.790861 12.209139,6 10,6 Z" id="Shape" fill="#F7931E"></path>
                </g>
            </g>
        </g>
    </g>
</svg>